# xmcd
#
# Track frame offsets:
#	150
#	26834
#	70966
#	120550
#	162824
#
# Disc length: 2739 seconds
#
# Revision: 0
# Processed by: cddbd v1.5.2PL0 Copyright (c) Steve Scherf et al.
# Submitted via: audiograbber 1.83.01
#
DISCID=3c0ab105
DTITLE=Aun - VII
DYEAR=2010
DGENRE=Ambient
TTITLE0=Drainbow
TTITLE1=Broken Hill
TTITLE2=Falcon
TTITLE3=Blackhole
TTITLE4=Untitled
EXTD=
EXTT0=
EXTT1=
EXTT2=
EXTT3=
EXTT4=
PLAYORDER=
